<svg id="logo_protector_no" xmlns="http://www.w3.org/2000/svg" viewBox="0 0 385.469 91.527"><defs><style>.cls-1{fill:#2b3c46;}.cls-2{fill:#f5822b;}</style></defs><path id="protector_no_text" class="cls-1" d="M15.663,1.153H.348L0,40.992H10.48l.231-15.2h6.678c8,0,13.869-4.031,13.869-12.49C31.258,8.81,29.015,1.153,15.663,1.153Zm-.7,17.038H10.307l.226-9.437h4.206c4.15,0,6.161,1.437,6.161,4.717C20.9,17.5,17.448,18.191,14.968,18.191ZM63.407,22.8v-.113a9.715,9.715,0,0,0,9.562-10.307C72.969,3.339,66,1.153,57.714,1.153H42.053l-.347,39.839h10.48l.231-15.2h1.554c2.3,0,3.279,1.726,4.491,4.147l5.7,11.053H75.845L68.882,28.554C67.441,25.961,65.713,23.49,63.407,22.8Zm-6.73-4.607H52.013l.229-9.437h4.2c4.147,0,6.161,1.437,6.161,4.717C62.606,17.5,59.151,18.191,56.677,18.191ZM105.119,0C91.533,0,83.593,9.5,83.593,21.069s7.94,21.069,21.526,21.069c13.528,0,21.474-9.5,21.474-21.069S118.647,0,105.119,0Zm-.059,33.854c-5.926,0-10.765-4.037-10.765-12.785S99.134,8.291,105.06,8.291c5.989,0,10.824,4.027,10.824,12.778S111.049,33.854,105.06,33.854ZM133.7,9.44h11.451l-.345,31.552h10.361l.348-31.552h10.764V1.153H133.7Zm43.679,31.552H204.9V32.7H187.855l.119-7.657h17.1V17.1H188.03l.113-7.658h17.1V1.153H177.722ZM239.3,8.291a17.83,17.83,0,0,1,8.294,2.073l3.166-7.483C248.118,1.209,243.683,0,238.27,0c-14.507,0-22.854,8.291-22.854,20.724,0,12.9,8.118,21.411,21.527,21.411A28.049,28.049,0,0,0,250.132,39.2l-3.054-7.426c-3.164,1.037-4.833,2.074-8.92,2.074-7.545,0-12.033-5.7-12.033-12.895C226.125,13.3,231.765,8.291,239.3,8.291ZM258.682,9.44h11.457l-.348,31.552h10.364L280.5,9.44h10.765V1.153H258.682ZM319.906,0c-13.592,0-21.532,9.5-21.532,21.069s7.94,21.069,21.532,21.069c13.521,0,21.474-9.5,21.474-21.069S333.427,0,319.906,0Zm-.056,33.854c-5.932,0-10.771-4.037-10.771-12.785S313.918,8.291,319.85,8.291c5.979,0,10.821,4.027,10.821,12.778S325.829,33.854,319.85,33.854Zm58.656-5.3c-1.441-2.593-3.172-5.064-5.471-5.756v-.113a9.711,9.711,0,0,0,9.556-10.307c0-9.039-6.963-11.225-15.26-11.225H351.677l-.341,39.839H361.81l.231-15.2H363.6c2.3,0,3.279,1.726,4.485,4.147l5.7,11.053h11.686ZM366.3,18.191H361.64l.229-9.437h4.2c4.144,0,6.158,1.437,6.158,4.717C372.23,17.5,368.775,18.191,366.3,18.191Z"/><path id="protector_no_circle" class="cls-2" d="M244.729,20.715a5.9,5.9,0,1,1-5.9-5.9,5.9,5.9,0,0,1,5.9,5.9"/><path id="protector_no_subtext" class="cls-1" d="M218.67,62.067v3.389h-2.295v2.008h2.295V83.287H221.3V67.464h3.827V65.456H221.3V62.142c0-1.641.73-2.624,2.406-2.624h1.421V57.256h-1.9C220.164,57.256,218.67,59.405,218.67,62.067Zm18.373,3.063a7.053,7.053,0,0,0-5.143,2.042c-1.823,1.861-2.186,4.372-2.186,7.148s.363,5.286,2.186,7.144a7.494,7.494,0,0,0,10.283,0c1.822-1.858,2.189-4.376,2.189-7.144s-.367-5.287-2.189-7.148A7.053,7.053,0,0,0,237.043,65.13Zm3.279,14.73a4.6,4.6,0,0,1-3.279,1.312A4.516,4.516,0,0,1,233.8,79.86c-1.312-1.312-1.46-3.536-1.46-5.54s.148-4.232,1.46-5.544a4.5,4.5,0,0,1,3.245-1.312,4.584,4.584,0,0,1,3.279,1.312c1.312,1.312,1.422,3.536,1.422,5.544S241.634,78.548,240.322,79.86Zm14.107-12.325V65.349H251.8V83.287h2.625V72.277c0-2.737,1.675-4.813,4.3-4.813a3.751,3.751,0,0,1,3.1,1.312l1.933-1.967a5.525,5.525,0,0,0-4.3-1.679A6.027,6.027,0,0,0,254.429,67.535Zm21.833,5.651-2.878-.254c-2.262-.182-3.139-1.093-3.139-2.625,0-1.823,1.388-2.953,4.012-2.953a7.659,7.659,0,0,1,4.777,1.422l1.713-1.713A10.144,10.144,0,0,0,274.3,65.13c-3.831,0-6.6,1.967-6.6,5.249,0,2.954,1.857,4.523,5.359,4.814l2.953.254c2.077.182,2.988,1.059,2.988,2.625,0,2.117-1.823,3.172-4.776,3.172a7.338,7.338,0,0,1-5.578-2.076l-1.748,1.747c1.967,1.9,4.338,2.591,7.363,2.591,4.338,0,7.292-2.008,7.292-5.469C281.549,74.683,279.4,73.48,276.262,73.186Zm12.246,10.1h2.625V65.349h-2.625Zm-.147-23.043h2.953V57.291h-2.953Zm25.191,5.105h-3.283l-8.093,9.334V57.328h-2.624V83.287h2.624V78.109l3.5-4.009,5.688,9.187h3.245L307.463,72.2Zm9.981,2.186V65.349h-2.624V83.287h2.624V72.277c0-2.737,1.676-4.813,4.3-4.813a3.751,3.751,0,0,1,3.1,1.312l1.933-1.967a5.527,5.527,0,0,0-4.3-1.679A6.03,6.03,0,0,0,323.533,67.535Zm14.542,15.752H340.7V65.349h-2.625Zm-.147-23.043h2.953V57.291h-2.953Zm18.845,4.886a6.471,6.471,0,0,0-5.03,2.186V65.349h-2.625V83.287h2.625V72.24c0-3.135,1.751-4.776,4.448-4.776s4.41,1.6,4.41,4.776V83.287h2.627V71.8a6.62,6.62,0,0,0-1.86-4.992A6.279,6.279,0,0,0,356.773,65.13Zm25.3.219v2.115a5.657,5.657,0,0,0-5.034-2.334,6.26,6.26,0,0,0-4.375,1.566c-1.785,1.788-2.186,4.56-2.186,7.476s.4,5.688,2.186,7.473a6.174,6.174,0,0,0,4.341,1.607,5.778,5.778,0,0,0,5.03-2.337v2.807c0,3.063-1.46,5.506-4.92,5.506a5.531,5.531,0,0,1-4.3-1.785L371.1,89.121a7.928,7.928,0,0,0,6.089,2.406c4.7,0,7.473-3.245,7.473-7.692V65.349Zm-4.485,15.529c-3.9,0-4.485-3.351-4.485-6.706s.582-6.708,4.485-6.708,4.447,3.354,4.447,6.708S381.488,80.878,377.589,80.878Z"/></svg>